<?xml version="1.0" ?><!DOCTYPE svg  PUBLIC '-//W3C//DTD SVG 1.1//EN'  'http://www.w3.org/Graphics/SVG/1.1/DTD/svg11.dtd'><svg enable-background="new 0 0 75 75" height="75px" version="1.1" viewBox="0 0 75 75" width="75px" xml:space="preserve" xmlns="http://www.w3.org/2000/svg" xmlns:xlink="http://www.w3.org/1999/xlink"><g id="Layer_1"><g><g><g><path d="M46.33,25.055c0.043-2.961,2.449-5.35,5.42-5.35c2.02,0,3.762,1.117,4.697,2.752      c0.241-0.025,0.486-0.037,0.733-0.037c4.005,0,7.251,3.246,7.251,7.252h-9.847h-4.656h-6.203      C43.726,27.711,44.773,26.01,46.33,25.055z" fill="#D9F1FF"/></g><g><path d="M48.721,26.479c0.031-2.045,1.695-3.697,3.75-3.697c1.395,0,2.6,0.771,3.244,1.902      c0.168-0.018,0.338-0.025,0.508-0.025c2.77,0,5.013,2.244,5.013,5.014h-6.807H51.21h-4.288      C46.922,28.316,47.646,27.141,48.721,26.479z" fill="#AEDCFF"/></g><g><path d="M64.452,30.422c-0.007-0.001-0.014,0-0.02,0H43.726c-0.414,0-0.75-0.336-0.75-0.75      c0-2.019,0.973-3.873,2.624-5.034c0.255-3.169,2.933-5.683,6.15-5.683c2.035,0,3.946,1.032,5.094,2.722      c0.112-0.004,0.224-0.007,0.337-0.007c4.351,0,7.902,3.492,7.999,7.821c0.014,0.058,0.022,0.119,0.022,0.181      C65.202,30.086,64.866,30.422,64.452,30.422z M44.536,28.922h19.103c-0.373-3.233-3.127-5.752-6.458-5.752      c-0.221,0-0.439,0.01-0.655,0.033c-0.302,0.025-0.583-0.116-0.729-0.374c-0.838-1.465-2.389-2.375-4.046-2.375      c-2.538,0-4.633,2.068-4.67,4.61c-0.004,0.257-0.139,0.494-0.358,0.628C45.535,26.422,44.751,27.595,44.536,28.922z" fill="#093260"/></g></g><g><g><path d="M27.84,11.953c-0.043-2.961-2.45-5.35-5.42-5.35c-2.02,0-3.762,1.117-4.697,2.752      c-0.24-0.023-0.486-0.037-0.733-0.037c-4.005,0-7.251,3.246-7.251,7.252h9.847h4.656h6.203      C30.444,14.611,29.396,12.908,27.84,11.953z" fill="#D9F1FF"/></g><g><path d="M25.449,13.379c-0.03-2.047-1.694-3.699-3.749-3.699c-1.396,0-2.601,0.771-3.245,1.902      c-0.168-0.016-0.337-0.025-0.508-0.025c-2.77,0-5.013,2.244-5.013,5.014h6.808h3.219h4.287      C27.248,15.215,26.524,14.039,25.449,13.379z" fill="#AEDCFF"/></g><g><path d="M30.444,17.32H9.738c-0.414,0-0.75-0.336-0.75-0.75c0-4.412,3.589-8.002,8.001-8.002      c0.112,0,0.225,0.002,0.337,0.007c1.147-1.69,3.058-2.722,5.094-2.722c3.217,0,5.896,2.514,6.15,5.683      c1.651,1.161,2.624,3.015,2.624,5.034C31.194,16.984,30.858,17.32,30.444,17.32z M10.531,15.82h19.103      c-0.215-1.327-0.999-2.5-2.186-3.228c-0.219-0.134-0.354-0.372-0.358-0.628c-0.037-2.542-2.132-4.61-4.67-4.61      c-1.658,0-3.208,0.91-4.046,2.375c-0.146,0.256-0.427,0.406-0.724,0.374c-0.216-0.021-0.438-0.034-0.661-0.034      C13.658,10.068,10.904,12.587,10.531,15.82z" fill="#093260"/></g></g><g><g><g><g><g><polygon fill="#D36B24" points="31.215,33.348 10.982,34.18 10.982,68.396 51.447,68.396 51.447,45.035        "/></g><g><path d="M12.77,34.105l-1.787,1.031v14.152v3.223c0,1.482,1.203,2.688,2.688,2.688         c1.486,0,2.693-1.205,2.693-2.688V46.18v-2.137v-1.805c0-1.486,1.201-2.689,2.688-2.689c1.485,0,2.688,1.203,2.688,2.689         v0.836v3.566c0,1.484,1.207,2.691,2.692,2.691c1.486,0,2.688-1.207,2.688-2.691v-6.674l4.095-2.363l20.232,11.684v-4.252         L31.215,33.348L12.77,34.105z" fill="#A0490E"/></g><g><path d="M31.215,47.58c-4.586,0-8.306,3.717-8.306,8.299v12.518h16.602V55.879         C39.511,51.297,35.803,47.58,31.215,47.58z" fill="#AA1F4D"/></g><g><path d="M31.213,50.873c-3.072,0-5.563,2.49-5.563,5.561v11.963h11.122V56.434         C36.771,53.363,34.286,50.873,31.213,50.873z" fill="#BC2A54"/></g></g><g><polygon fill="#D36B24" points="51.447,30.814 51.447,18.562 39.511,18.562 39.511,23.924       "/></g><g><rect fill="#FFFFFF" height="7.609" width="18.725" x="36.117" y="10.953"/></g><g><rect fill="#A0490E" height="4.963" width="11.937" x="39.511" y="18.562"/></g><g><rect fill="#D9F1FF" height="3.805" width="18.725" x="36.117" y="14.758"/></g></g><g><path d="M33.973,57.988c0,0-0.14,0-0.302,0c-0.167,0-0.302,0-0.302,0s0.135,0,0.302,0       C33.833,57.988,33.973,57.988,33.973,57.988z" fill="#0CAFAF"/></g><g><path d="M31.215,19.131L6.447,33.43v14.15l4.535-2.617v3.223c0,1.482,1.203,2.688,2.688,2.688       c1.486,0,2.693-1.205,2.693-2.688v-6.332v-2.137v-1.805c0-1.486,1.201-2.689,2.688-2.689c1.485,0,2.688,1.203,2.688,2.689       v0.836v3.566c0,1.484,1.207,2.691,2.692,2.691c1.486,0,2.688-1.207,2.688-2.691v-6.672l4.095-2.365L55.983,47.58V33.43       L31.215,19.131z" fill="#FFFFFF"/></g><g><path d="M6.447,38.52v9.061l4.535-2.617v3.223c0,1.482,1.203,2.688,2.688,2.688       c1.486,0,2.693-1.205,2.693-2.688v-1.242v-2.137v-1.805v-1.148v-2.137v-1.805c0-1.486,1.201-2.689,2.688-2.689       c1.485,0,2.688,1.203,2.688,2.689v0.836v3.566c0,1.484,1.207,2.691,2.692,2.691c1.486,0,2.688-1.207,2.688-2.691V40.73v-5.088       l4.095-2.365L55.983,47.58V38.52L31.215,24.219L6.447,38.52z" fill="#D9F1FF"/></g><g><line fill="#0CAFAF" x1="27.12" x2="44.595" y1="41.078" y2="41.078"/></g><g><line fill="#0CAFAF" x1="16.498" x2="21.739" y1="41.078" y2="41.078"/></g><g><line fill="#0CAFAF" x1="11.847" x2="24.604" y1="50.873" y2="50.873"/></g><g><line fill="#0CAFAF" x1="38.221" x2="50.974" y1="50.873" y2="50.873"/></g><g><line fill="#0CAFAF" x1="39.511" x2="50.974" y1="60.818" y2="60.818"/></g><g><line fill="#0CAFAF" x1="10.982" x2="22.44" y1="60.818" y2="60.818"/></g></g><g><g><g><g><path d="M51.447,69.146H10.982c-0.414,0-0.75-0.336-0.75-0.75V45.035c0-0.414,0.336-0.75,0.75-0.75         s0.75,0.336,0.75,0.75v22.611h38.965V45.468L30.84,33.997c-0.359-0.207-0.481-0.666-0.274-1.024         c0.207-0.359,0.666-0.482,1.024-0.274l20.232,11.688c0.232,0.134,0.375,0.382,0.375,0.649v23.361         C52.197,68.811,51.861,69.146,51.447,69.146z" fill="#093260"/></g><g><path d="M39.511,69.146H22.909c-0.414,0-0.75-0.336-0.75-0.75V55.879c0-4.989,4.062-9.049,9.056-9.049         c4.988,0,9.046,4.06,9.046,9.049v12.518C40.261,68.811,39.925,69.146,39.511,69.146z M23.659,67.646h15.102V55.879         c0-4.162-3.385-7.549-7.546-7.549c-4.166,0-7.556,3.387-7.556,7.549V67.646z" fill="#093260"/></g></g><g><path d="M51.447,31.564c-0.129,0-0.259-0.034-0.375-0.101l-11.937-6.891c-0.232-0.134-0.375-0.381-0.375-0.649        v-5.361c0-0.414,0.336-0.75,0.75-0.75h11.937c0.414,0,0.75,0.336,0.75,0.75v12.252c0,0.268-0.143,0.516-0.375,0.649        C51.706,31.531,51.577,31.564,51.447,31.564z M40.261,23.491l10.437,6.025V19.312H40.261V23.491z" fill="#093260"/></g><g><path d="M54.842,19.312H36.117c-0.414,0-0.75-0.336-0.75-0.75v-7.609c0-0.414,0.336-0.75,0.75-0.75h18.725        c0.414,0,0.75,0.336,0.75,0.75v7.609C55.592,18.977,55.256,19.312,54.842,19.312z M36.867,17.812h17.225v-6.109H36.867V17.812        z" fill="#093260"/></g></g><g><path d="M33.973,58.738h-0.604c-0.414,0-0.75-0.336-0.75-0.75s0.336-0.75,0.75-0.75h0.604       c0.414,0,0.75,0.336,0.75,0.75S34.387,58.738,33.973,58.738z" fill="#093260"/></g><g><path d="M13.67,51.623c-1.896,0-3.438-1.542-3.438-3.438v-1.924l-3.41,1.968c-0.232,0.135-0.518,0.135-0.75,0       c-0.232-0.134-0.375-0.382-0.375-0.649V33.43c0-0.268,0.143-0.516,0.375-0.649L30.84,18.481c0.232-0.134,0.518-0.134,0.75,0       L56.358,32.78c0.232,0.134,0.375,0.381,0.375,0.649v14.15c0,0.268-0.143,0.516-0.375,0.649c-0.232,0.135-0.518,0.135-0.75,0       L31.215,34.144l-3.345,1.932v6.239c0,1.897-1.542,3.441-3.438,3.441c-1.898,0-3.442-1.544-3.442-3.441v-4.402       c0-1.069-0.869-1.939-1.938-1.939c-1.069,0-1.938,0.87-1.938,1.939v10.273C17.113,50.081,15.568,51.623,13.67,51.623z        M10.982,44.213c0.129,0,0.259,0.033,0.375,0.101c0.232,0.134,0.375,0.382,0.375,0.649v3.223c0,1.068,0.869,1.938,1.938,1.938       c1.072,0,1.943-0.869,1.943-1.938V37.912c0-1.896,1.542-3.439,3.438-3.439c1.896,0,3.438,1.543,3.438,3.439v4.402       c0,1.07,0.872,1.941,1.942,1.941c1.069,0,1.938-0.871,1.938-1.941v-6.672c0-0.268,0.143-0.516,0.375-0.649l4.095-2.365       c0.231-0.134,0.518-0.134,0.75,0l23.644,13.653V33.863L31.215,19.997L7.197,33.863v12.418l3.41-1.968       C10.724,44.246,10.853,44.213,10.982,44.213z" fill="#093260"/></g><g><path d="M44.595,41.828H27.12c-0.414,0-0.75-0.336-0.75-0.75s0.336-0.75,0.75-0.75h17.475       c0.414,0,0.75,0.336,0.75,0.75S45.009,41.828,44.595,41.828z" fill="#093260"/></g><g><path d="M21.739,41.828h-5.241c-0.414,0-0.75-0.336-0.75-0.75s0.336-0.75,0.75-0.75h5.241       c0.414,0,0.75,0.336,0.75,0.75S22.153,41.828,21.739,41.828z" fill="#093260"/></g><g><path d="M24.604,51.623H11.847c-0.414,0-0.75-0.336-0.75-0.75s0.336-0.75,0.75-0.75h12.758       c0.414,0,0.75,0.336,0.75,0.75S25.019,51.623,24.604,51.623z" fill="#093260"/></g><g><path d="M50.974,51.623H38.221c-0.414,0-0.75-0.336-0.75-0.75s0.336-0.75,0.75-0.75h12.753       c0.414,0,0.75,0.336,0.75,0.75S51.388,51.623,50.974,51.623z" fill="#093260"/></g><g><path d="M50.974,61.568H39.511c-0.414,0-0.75-0.336-0.75-0.75s0.336-0.75,0.75-0.75h11.463       c0.414,0,0.75,0.336,0.75,0.75S51.388,61.568,50.974,61.568z" fill="#093260"/></g><g><path d="M22.44,61.568H10.982c-0.414,0-0.75-0.336-0.75-0.75s0.336-0.75,0.75-0.75H22.44       c0.414,0,0.75,0.336,0.75,0.75S22.854,61.568,22.44,61.568z" fill="#093260"/></g></g><g><g><g><polygon fill="#C6621E" points="58.15,68.396 53.514,68.396 54.287,63.379 57.377,63.379       "/></g><g><polygon fill="#A0490E" points="56.785,68.396 54.88,68.396 55.197,63.379 56.467,63.379       "/></g><g><g><g><path d="M61.583,47.227c-0.646-0.223-1.259-0.703-1.763-1.457l-3.988-7.25l-3.986,7.25          c-0.504,0.754-1.119,1.234-1.764,1.457H61.583z" fill="#0CAFAF"/></g></g><g><path d="M55.832,38.52l-3.986,7.25c-0.504,0.754-1.119,1.234-1.764,1.457h5.75V38.52z" fill="#1BC1A9"/></g><g><path d="M62.266,52.395l-2.844-5.168h-7.178l-2.845,5.168c-0.812,1.217-1.804,1.99-2.843,2.35h18.553         C64.068,54.385,63.078,53.611,62.266,52.395z" fill="#1BC1A9"/></g><g><g><path d="M64.654,60.158l-2.979-5.414H49.99l-2.979,5.414c-1.114,1.67-2.473,2.73-3.898,3.221h25.439          C67.126,62.889,65.768,61.828,64.654,60.158z" fill="#1BC1A9"/></g></g></g><g><g><g><path d="M59.34,47.227c-0.394-0.223-0.768-0.703-1.076-1.457l-2.432-7.25L53.4,45.77          c-0.307,0.754-0.682,1.234-1.076,1.457H59.34z" fill="#109BAD"/></g></g><g><path d="M53.4,45.77c-0.307,0.754-0.682,1.234-1.076,1.457h3.508V38.52L53.4,45.77z" fill="#0CAFAF"/></g><g><path d="M59.756,52.395l-1.734-5.168h-4.378l-1.734,5.168c-0.495,1.217-1.099,1.99-1.733,2.35h11.315         C60.855,54.385,60.252,53.611,59.756,52.395z" fill="#0CAFAF"/></g><g><path d="M62.266,52.395l-2.844-5.168h-6.916l-0.182,0.18l7.339,7.338h5.446         C64.068,54.385,63.078,53.611,62.266,52.395z" fill="#0CAFAF"/></g><g><path d="M59.756,52.395l-1.734-5.168h-4.378l-0.377,1.121l6.396,6.396h1.828         C60.855,54.385,60.252,53.611,59.756,52.395z" fill="#109BAD"/></g><g><g><path d="M61.212,60.158l-1.815-5.414h-7.128l-1.816,5.414c-0.679,1.67-1.508,2.73-2.378,3.221H63.59          C62.721,62.889,61.892,61.828,61.212,60.158z" fill="#0CAFAF"/></g></g><g><path d="M64.654,60.158l-2.979-5.414h-11.1l-0.4,0.4l8.234,8.234h10.143         C67.126,62.889,65.768,61.828,64.654,60.158z" fill="#0CAFAF"/></g><g><path d="M61.212,60.158l-1.815-5.414h-7.128l-0.626,1.869l6.768,6.766h5.18         C62.721,62.889,61.892,61.828,61.212,60.158z" fill="#109BAD"/></g></g><g><g><path d="M61.583,47.977H50.082c-0.366,0-0.679-0.265-0.74-0.626s0.148-0.713,0.495-0.833         c0.516-0.178,0.995-0.581,1.385-1.165l3.953-7.194c0.264-0.479,1.051-0.479,1.314,0l3.988,7.25         c0.357,0.529,0.835,0.932,1.35,1.109c0.346,0.119,0.556,0.472,0.495,0.833S61.949,47.977,61.583,47.977z M52.255,46.477         h7.149c-0.071-0.093-0.141-0.19-0.208-0.29l-3.364-6.111l-3.33,6.056C52.423,46.252,52.34,46.367,52.255,46.477z" fill="#093260"/></g></g><g><path d="M65.109,55.494H46.557c-0.366,0-0.679-0.265-0.74-0.626c-0.061-0.361,0.148-0.713,0.495-0.833        c0.929-0.321,1.781-1.032,2.464-2.057l2.812-5.113c0.132-0.24,0.384-0.389,0.657-0.389h7.178c0.273,0,0.525,0.148,0.657,0.389        l2.844,5.168c0.651,0.971,1.503,1.682,2.431,2.002c0.346,0.119,0.556,0.472,0.495,0.833S65.476,55.494,65.109,55.494z         M49.057,53.994h13.546c-0.346-0.348-0.667-0.743-0.961-1.184l-2.663-4.834h-6.292l-2.631,4.779        C49.747,53.222,49.413,53.635,49.057,53.994z" fill="#093260"/></g><g><g><path d="M68.553,64.129H43.113c-0.367,0-0.679-0.265-0.74-0.626c-0.061-0.362,0.149-0.714,0.496-0.833         c1.328-0.457,2.545-1.47,3.518-2.928l2.945-5.359c0.132-0.24,0.384-0.389,0.657-0.389h11.686         c0.273,0,0.525,0.148,0.657,0.389l2.979,5.414c0.939,1.403,2.156,2.416,3.485,2.873c0.347,0.119,0.557,0.471,0.496,0.833         C69.232,63.864,68.919,64.129,68.553,64.129z M45.841,62.629H65.82c-0.655-0.566-1.256-1.255-1.79-2.055l-2.798-5.08H50.434         l-2.765,5.025C47.117,61.349,46.504,62.054,45.841,62.629z" fill="#093260"/></g></g><g><path d="M58.17,69.146c-0.007,0-0.013,0-0.02,0h-4.637c-0.219,0-0.427-0.096-0.569-0.262        s-0.205-0.386-0.172-0.603l0.773-5.018c0.056-0.366,0.371-0.636,0.741-0.636h3.09c0.37,0,0.685,0.27,0.741,0.636l0.748,4.851        c0.035,0.087,0.055,0.182,0.055,0.281C58.92,68.811,58.584,69.146,58.17,69.146z M54.388,67.646h2.888l-0.542-3.518H54.93        L54.388,67.646z" fill="#093260"/></g><g><path d="M60.408,69.146h-9.15c-0.414,0-0.75-0.336-0.75-0.75s0.336-0.75,0.75-0.75h9.15        c0.414,0,0.75,0.336,0.75,0.75S60.822,69.146,60.408,69.146z" fill="#093260"/></g></g></g></g></g></g></svg>